<svg xmlns="http://www.w3.org/2000/svg" class="cat pet-icons" viewBox="0 0 200 225"><title>petbot-graphics</title><g id="Layer_2_copy" data-name="Layer 2 copy"><circle class="accent-fill" cx="100" cy="99.1" r="81.54"/><path class="cls-2" d="M136.2,90.45,116,101.67a47.49,47.49,0,0,0-12.13-6.27l1.43,0S87.83,81.26,82.68,83s0,7.05,0,7.05-6.09-2.76-6.91.89l-.82,3.65h.12a47.39,47.39,0,0,0-15.2,7.44L39,90.45c-2.69-1.49-5.5,1.75-4.32,5l9.7,26.49a46.11,46.11,0,0,0-3.48,17.59c0,25.82,33.38,46.76,47.33,46.76,14.4,0,47.33-20.93,47.33-46.76a46.09,46.09,0,0,0-4.15-19.13l9.14-25C141.7,92.2,138.88,89,136.2,90.45Z"/><path class="cls-3" d="M88.2,187.18c-7.59,0-19.72-5.72-29.48-13.91-7-5.88-18.76-18.08-18.76-33.76a46.89,46.89,0,0,1,3.41-17.61L33.78,95.74a5.11,5.11,0,0,1,1.35-5.64,3.65,3.65,0,0,1,4.27-.45L59.79,101a48.13,48.13,0,0,1,14.37-7l.71-3.16a3.11,3.11,0,0,1,1.66-2.19,6,6,0,0,1,3.74-.22,5.07,5.07,0,0,1-.71-3.52,3.86,3.86,0,0,1,2.82-2.67c5.5-1.88,21.66,11.09,23.49,12.58l1.06.86a48,48,0,0,1,9.13,5l19.71-10.94a3.64,3.64,0,0,1,4.27.45,5.1,5.1,0,0,1,1.35,5.64l-9,24.6a46.79,46.79,0,0,1,4.07,19.17C136.44,166.54,102.19,187.18,88.2,187.18ZM37.58,91a2,2,0,0,0-1.26.5,3.31,3.31,0,0,0-.82,3.62l9.82,26.82-.13.33a45.07,45.07,0,0,0-3.41,17.25c0,25.51,33.33,45.84,46.42,45.84,7.36,0,19.07-5.54,28.48-13.48,6.7-5.65,17.94-17.37,17.94-32.36a45,45,0,0,0-4.06-18.75l-.16-.34,9.27-25.3a3.31,3.31,0,0,0-.82-3.62,1.84,1.84,0,0,0-2.2-.24l-20.72,11.51-.47-.34a46.53,46.53,0,0,0-11.9-6.15L98,94.33l4.59.13C95.82,89.25,86,82.83,83,83.89c-1.42.49-1.58,1.15-1.63,1.37-.33,1.4,1.37,3.54,2,4.18l3.38,3.47-4.41-2c-.86-.39-3.63-1.36-4.95-.7a1.29,1.29,0,0,0-.69,1l-.58,2.56,4.93.11-5.69,1.66a46.32,46.32,0,0,0-14.91,7.3l-.47.35L38.52,91.25A1.91,1.91,0,0,0,37.58,91Zm98.62-.54h0Z"/><polygon class="cls-4" points="42.15 98.15 46.57 113.93 51.73 107.15 42.15 98.15"/><polygon class="cls-4" points="132.78 98.26 128.43 113.82 123.34 107.13 132.78 98.26"/><path class="cls-5" d="M52.38,108.06a.91.91,0,0,1-.61-.23l-11.14-10a.91.91,0,0,1,1.22-1.36l11.14,10a.91.91,0,0,1-.61,1.6Z"/><path class="cls-5" d="M122.49,108.08a.91.91,0,0,1-.61-1.6l11.14-10a.91.91,0,0,1,1.22,1.36l-11.14,10A.91.91,0,0,1,122.49,108.08Z"/><path class="cls-6" d="M82.68,123.54a26.09,26.09,0,0,1-13.47,4.24,26.09,26.09,0,0,1-13.47-4.24s6-6.07,13.47-6.07S82.68,123.54,82.68,123.54Z"/><path class="cls-3" d="M69.2,128.69a26.78,26.78,0,0,1-14-4.41l-.89-.62.76-.77c.26-.26,6.39-6.34,14.12-6.34s13.87,6.08,14.12,6.34l.76.77-.89.62A26.78,26.78,0,0,1,69.2,128.69Zm-12-5.29a25,25,0,0,0,12,3.46,25,25,0,0,0,12-3.46c-1.87-1.58-6.57-5-12-5S59.12,121.82,57.24,123.4Z"/><path class="cls-6" d="M118.76,123.54a26.09,26.09,0,0,1-13.47,4.24,26.09,26.09,0,0,1-13.47-4.24s6-6.07,13.47-6.07S118.76,123.54,118.76,123.54Z"/><path class="cls-3" d="M105.29,128.69a26.78,26.78,0,0,1-14-4.41l-.89-.62.76-.77c.26-.26,6.39-6.34,14.12-6.34s13.87,6.08,14.12,6.34l.76.77-.89.62A26.79,26.79,0,0,1,105.29,128.69Zm-12-5.29a25,25,0,0,0,12,3.46,24.92,24.92,0,0,0,12-3.46c-1.87-1.58-6.57-5-12-5S95.2,121.82,93.33,123.4Z"/><circle class="cls-3" cx="69.2" cy="120.7" r="3.24"/><circle class="cls-3" cx="105.29" cy="120.7" r="3.24"/><circle class="cls-7" cx="50.26" cy="133.57" r="2.12"/><circle class="cls-7" cx="50.15" cy="142.59" r="2.12"/><circle class="cls-7" cx="54.81" cy="151.42" r="2.12"/><path class="cls-3" d="M22.53,139.05a.91.91,0,0,1-.42-1.73,49.07,49.07,0,0,1,22.22-5.05,54.86,54.86,0,0,1,5.92.32.91.91,0,1,1-.2,1.82,53,53,0,0,0-5.72-.31A47.26,47.26,0,0,0,22.95,139,.91.91,0,0,1,22.53,139.05Z"/><path class="cls-3" d="M29.33,151a.91.91,0,0,1-.48-1.69,51.35,51.35,0,0,1,14.86-6.12,54.59,54.59,0,0,1,5.83-1.08.91.91,0,1,1,.23,1.81,52.35,52.35,0,0,0-5.63,1,49.47,49.47,0,0,0-14.33,5.9A.92.92,0,0,1,29.33,151Z"/><path class="cls-3" d="M36.33,160.1a.91.91,0,0,1-.5-1.68,52.25,52.25,0,0,1,12.34-5.85A53.89,53.89,0,0,1,53.9,151a.91.91,0,0,1,1.08.71.91.91,0,0,1-.71,1.08,52.92,52.92,0,0,0-5.53,1.47A50.37,50.37,0,0,0,36.83,160,.92.92,0,0,1,36.33,160.1Z"/><circle class="cls-7" cx="125.85" cy="133.57" r="2.12"/><circle class="cls-7" cx="125.95" cy="142.59" r="2.12"/><circle class="cls-7" cx="121.29" cy="151.42" r="2.12"/><path class="cls-3" d="M153.57,139.05a.91.91,0,0,1-.41-.1,47.26,47.26,0,0,0-21.39-4.85,53,53,0,0,0-5.72.31.92.92,0,0,1-1-.81.92.92,0,0,1,.81-1,54.84,54.84,0,0,1,5.92-.32A49.07,49.07,0,0,1,154,137.33a.91.91,0,0,1-.42,1.73Z"/><path class="cls-3" d="M146.77,151a.9.9,0,0,1-.48-.14,49.46,49.46,0,0,0-14.33-5.9,52.29,52.29,0,0,0-5.63-1,.91.91,0,0,1,.23-1.81,54.57,54.57,0,0,1,5.83,1.08,51.39,51.39,0,0,1,14.86,6.12.91.91,0,0,1-.48,1.69Z"/><path class="cls-3" d="M139.78,160.1a.92.92,0,0,1-.5-.15,50.31,50.31,0,0,0-11.91-5.64,52.43,52.43,0,0,0-5.53-1.47.91.91,0,0,1-.71-1.08.9.9,0,0,1,1.08-.71,53.84,53.84,0,0,1,5.73,1.52,52.13,52.13,0,0,1,12.34,5.85.91.91,0,0,1-.5,1.68Z"/><path class="cls-3" d="M100.86,154.35c-.45,0-.92,0-1.4-.05a12.1,12.1,0,0,1-8.84-4.18c-4-4.77-3.24-11.78-3.21-12.08a.91.91,0,0,1,1.82.2c0,.07-.67,6.55,2.8,10.71a10.35,10.35,0,0,0,7.56,3.52c11.76.86,12.71-10.12,12.74-10.59a.9.9,0,0,1,1-.84.92.92,0,0,1,.84,1C114.15,142.15,113.1,154.35,100.86,154.35Z"/><path class="cls-3" d="M75.66,154.35c-12.24,0-13.29-12.2-13.29-12.33a.91.91,0,0,1,.84-1,.93.93,0,0,1,1,.84c0,.47,1,11.48,12.74,10.59A10.34,10.34,0,0,0,84.49,149c3.48-4.18,2.8-10.64,2.8-10.7a.91.91,0,0,1,1.82-.2c0,.3.76,7.3-3.21,12.08a12.1,12.1,0,0,1-8.84,4.18C76.57,154.34,76.11,154.35,75.66,154.35Z"/><path class="cls-7" d="M65.74,163.21a22.88,22.88,0,0,0,44.18,0Z"/><path class="cls-7" d="M86.23,96.48H88a1.06,1.06,0,0,1,1.06,1.06v18.36a0,0,0,0,1,0,0H85.16a0,0,0,0,1,0,0V97.55A1.06,1.06,0,0,1,86.23,96.48Z"/><path class="cls-7" d="M79.66,113.37l-3.89-1.83V100.32a2,2,0,0,1,1.95-1.95h0a2,2,0,0,1,1.95,1.95Z"/><path class="cls-7" d="M98.19,111.54l-3.89,1.83v-13a2,2,0,0,1,1.95-1.95h0a2,2,0,0,1,1.95,1.95Z"/><path class="cls-4" d="M94.19,131.52a1.25,1.25,0,0,0-1-.65l-10.88.23a1.13,1.13,0,0,0-.76,1.95l6.75,6.42L94,132.74A1.13,1.13,0,0,0,94.19,131.52Z"/><path class="cls-8" d="M86,135.17a1.59,1.59,0,0,0-1.39.85l2.21,2.1a1.58,1.58,0,0,0,.78-1.35A1.61,1.61,0,0,0,86,135.17Z"/><path class="cls-8" d="M90.18,135.16a1.61,1.61,0,0,0-1.61,1.61,1.59,1.59,0,0,0,.82,1.37l2-2.36A1.58,1.58,0,0,0,90.18,135.16Z"/></g></svg>
