<svg xmlns="http://www.w3.org/2000/svg" class="grey-dog pet-icons" viewBox="0 0 200 225"><title>petbot-graphics</title><g id="Layer_2_copy" data-name="Layer 2 copy"><circle class="accent-fill" cx="100" cy="89.05" r="81.54"/><path class="cls-2" d="M60.28,84.06h6.47L71.6,174h5.51c5.38,4.18,14.05,6.91,23.87,6.91s18.48-2.73,23.87-6.91h4.79l.44-7a9.88,9.88,0,0,0,.48-2.93,9.75,9.75,0,0,0-.18-1.81l5.13-79.12H142l-5.33-21.33c8.06,44.45,22.11,42.84,22.11,42.84l6-35.7-30.4-11.52-7.37,6L119.39,62a99.4,99.4,0,0,0-37.54,0l-7.49,1.44-6.45-5.06L37.51,69.87l6,35.7s14,1.61,22.11-42.84"/><path class="cls-3" d="M101,181.8c-9.58,0-18.36-2.52-24.18-6.91H71.6a.91.91,0,0,1-.91-.86L65.88,85h-5c-7.83,22.28-17,21.56-17.53,21.5a.92.92,0,0,1-.8-.76l-6-35.7a.92.92,0,0,1,.58-1L67.59,57.5a.92.92,0,0,1,.89.14l6.12,4.8,7.08-1.36a99.91,99.91,0,0,1,37.89,0l7.17,1.36,7-5.7a.91.91,0,0,1,.9-.14l30.4,11.52a.92.92,0,0,1,.58,1l-6,35.7a.92.92,0,0,1-.8.76c-.47.06-9.69.78-17.53-21.5h-5l-5.07,78.15a10.39,10.39,0,0,1,.17,1.86,10.65,10.65,0,0,1-.49,3.09l-.44,6.87a.91.91,0,0,1-.91.86h-4.48C119.35,179.29,110.56,181.8,101,181.8Zm-28.51-8.74h4.65a.91.91,0,0,1,.56.19c5.41,4.2,14.13,6.72,23.3,6.72s17.89-2.51,23.31-6.72a.91.91,0,0,1,.56-.19h3.93l.39-6.12a.93.93,0,0,1,0-.21,9,9,0,0,0,.44-2.66,8.69,8.69,0,0,0-.16-1.64.89.89,0,0,1,0-.23l5.13-79.12a.92.92,0,0,1,.91-.86h5.2a151.26,151.26,0,0,1-5-20.25.92.92,0,0,1,1.79-.38l5.33,21.33s0,.08,0,.12c6.14,17.88,13,20.34,15.1,20.66l5.73-34.16L134.52,58.48l-7,5.64a.93.93,0,0,1-.74.19l-7.59-1.44a98,98,0,0,0-37.2,0l-7.49,1.44a.93.93,0,0,1-.74-.18l-6-4.74L38.54,70.46l5.73,34.14c2.78-.49,13.7-4.81,20.44-42a.92.92,0,0,1,1.8.33,151.26,151.26,0,0,1-5,20.25h5.2a.91.91,0,0,1,.91.87Z"/><path class="cls-4" d="M124.11,133.9c-10.59-9.21-12.44-13.13-12.21-36.85.21-21.21-.23-39.61-.23-39.61H89.57s-.44,18.41-.23,39.61c.23,23.72-1.61,27.64-12.21,36.85-12.3,10.69-23.49,26.26-23.49,26.26l21.19,24,14.38-25.53,11.42,4.81L112,158.58l14.38,25.53,21.19-24S136.41,144.6,124.11,133.9Z"/><path class="cls-4" d="M85.51,96.82c0,2.67-3.32,4.84-7.42,4.84s-7.42-2.17-7.42-4.84c0-1.84,3.4-4,7.42-4.84S85.51,94.15,85.51,96.82Z"/><path class="cls-5" d="M78.1,102.57c-4.67,0-8.33-2.53-8.33-5.75,0-2.67,4.2-4.95,8.15-5.73a7.54,7.54,0,0,1,6.29,1.54,5.65,5.65,0,0,1,2.22,4.2C86.43,100,82.77,102.57,78.1,102.57Zm1.35-9.81a6,6,0,0,0-1.17.12c-4.08.81-6.68,2.88-6.68,3.94,0,2.13,3,3.92,6.5,3.92s6.5-1.8,6.5-3.92A3.82,3.82,0,0,0,83,94,5.65,5.65,0,0,0,79.45,92.77Z"/><path class="cls-4" d="M115.35,96.82c0,2.67,3.32,4.84,7.42,4.84s7.42-2.17,7.42-4.84c0-1.84-3.4-4-7.42-4.84S115.35,94.15,115.35,96.82Z"/><path class="cls-5" d="M122.76,102.57c-4.67,0-8.33-2.53-8.33-5.75a5.65,5.65,0,0,1,2.22-4.2,7.54,7.54,0,0,1,6.29-1.54c4,.79,8.15,3.07,8.15,5.73C131.09,100,127.43,102.57,122.76,102.57Zm-1.35-9.81a5.65,5.65,0,0,0-3.6,1.28,3.82,3.82,0,0,0-1.55,2.78c0,2.13,3,3.92,6.5,3.92s6.5-1.8,6.5-3.92c0-1.06-2.6-3.13-6.68-3.94A6,6,0,0,0,121.41,92.77Z"/><path class="cls-5" d="M100.62,154.17c3.92,0,6.91-1.15,5.79-3.68s4.57.23,5.72-6-11.52-5.76-11.52-5.76S88,138.28,89.11,144.5s6.84,3.45,5.72,6S96.71,154.17,100.62,154.17Z"/><path class="cls-6" d="M100.62,155.09c-1.91,0-5.3-.28-6.51-2.15a2.83,2.83,0,0,1-.12-2.82h0l-.62-.16c-1.53-.35-4.37-1-5.16-5.29a4.28,4.28,0,0,1,1-3.75c2.9-3.36,11.13-3.1,11.49-3.09s8.52-.27,11.42,3.09a4.27,4.27,0,0,1,1,3.75c-.79,4.28-3.64,4.94-5.16,5.29l-.62.16h0a2.83,2.83,0,0,1-.12,2.82C105.92,154.81,102.53,155.09,100.62,155.09ZM100,139.64c-2.55,0-7.68.42-9.45,2.47a2.5,2.5,0,0,0-.54,2.22c.58,3.1,2.35,3.51,3.78,3.84.82.19,1.59.37,1.95,1.08a1.88,1.88,0,0,1-.07,1.6c-.27.6-.14.91,0,1.08.4.61,1.94,1.32,5,1.32s4.59-.71,5-1.32c.12-.18.24-.48,0-1.08a1.88,1.88,0,0,1-.07-1.6c.36-.72,1.13-.89,1.95-1.08,1.43-.33,3.2-.74,3.78-3.84a2.5,2.5,0,0,0-.55-2.22c-1.94-2.25-7.9-2.54-10-2.46Z"/><circle class="cls-5" cx="78.1" cy="96.06" r="2.29"/><path class="cls-6" d="M78.1,99.26a3.2,3.2,0,1,1,3.2-3.2A3.2,3.2,0,0,1,78.1,99.26Zm0-4.57a1.37,1.37,0,1,0,1.37,1.37A1.37,1.37,0,0,0,78.1,94.69Z"/><circle class="cls-5" cx="122.76" cy="96.06" r="2.29"/><path class="cls-6" d="M122.76,99.26a3.2,3.2,0,1,1,3.2-3.2A3.2,3.2,0,0,1,122.76,99.26Zm0-4.57a1.37,1.37,0,1,0,1.37,1.37A1.37,1.37,0,0,0,122.76,94.69Z"/><path class="cls-7" d="M84.6,84.86s-4.26-8.12-8.34-8.69c-4.34-.61-1.36,4.34-1.36,4.34s-6.72.15-3.21,4.35C71.68,84.86,62.61,95.15,84.6,84.86Z"/><path class="cls-7" d="M116.29,84.86s4.26-8.12,8.34-8.69c4.34-.61,1.36,4.34,1.36,4.34s6.72.15,3.21,4.35C129.21,84.86,138.28,95.15,116.29,84.86Z"/><rect class="cls-8" x="63.98" y="147.13" width="2.98" height="21.34" transform="translate(130.75 -0.07) rotate(45)"/><rect class="cls-8" x="67.74" y="156.31" width="2.98" height="16.84" transform="translate(122.99 -5.68) rotate(40.3)"/><rect class="cls-8" x="71.06" y="166.06" width="2.98" height="12.16" transform="translate(128.57 -6.07) rotate(40.3)"/><rect class="cls-8" x="133.86" y="147.54" width="2.98" height="21.34" transform="translate(342.94 174.37) rotate(135)"/><rect class="cls-8" x="130.1" y="156.72" width="2.98" height="16.84" transform="matrix(-0.76, 0.65, -0.65, -0.76, 338.77, 205.95)"/><rect class="cls-8" x="99.31" y="62.19" width="2.98" height="13.73" transform="translate(169.85 -31.75) rotate(90)"/><rect class="cls-8" x="101.68" y="67.9" width="2.98" height="11.75" transform="translate(176.95 -29.39) rotate(90)"/><rect class="cls-8" x="99.31" y="74.38" width="2.98" height="13.73" transform="translate(182.05 -19.56) rotate(90)"/><rect class="cls-8" x="98.7" y="84.3" width="2.98" height="12.49" transform="translate(190.73 -9.64) rotate(90)"/><rect class="cls-8" x="126.78" y="166.47" width="2.98" height="12.16" transform="translate(337.71 221.17) rotate(139.7)"/><path class="cls-5" d="M75,185.68,52.47,160.22l.43-.59c.11-.16,11.39-15.77,23.63-26.41,10.31-9,12.12-12.45,11.89-36.15-.21-21,.23-39.46.23-39.64l0-.89h23.9l0,.89c0,.18.43,18.66.23,39.64-.23,23.7,1.59,27.19,11.89,36.15h0c12.24,10.64,23.52,26.26,23.63,26.41l.43.59-22.52,25.46-14.61-25.94-11,4.64-11-4.64Zm37.44-28.26,14.15,25.12,19.85-22.44c-2.17-2.93-12.18-16.18-22.92-25.51S110.76,121.37,111,97c.18-18.33-.13-34.75-.21-38.69H90.46c-.08,3.94-.39,20.36-.21,38.69.24,24.32-1.84,28.26-12.52,37.55S57,157.17,54.81,160.11l19.85,22.44,14.15-25.12,11.81,5Z"/><path class="cls-2" d="M100.62,168a15.37,15.37,0,0,1-11.82-6,3.08,3.08,0,0,1,4.74-3.93,8.55,8.55,0,0,0,14.17,0,3.08,3.08,0,0,1,4.74,3.93A15.37,15.37,0,0,1,100.62,168Z"/><path class="cls-5" d="M100.62,168.9a16.27,16.27,0,0,1-12.53-6.32,4,4,0,1,1,6.15-5.09,7.65,7.65,0,0,0,12.76,0,4,4,0,1,1,6.15,5.09A16.27,16.27,0,0,1,100.62,168.9Zm-9.45-11a2.16,2.16,0,0,0-1.66,3.54,13.76,13.76,0,0,0,22.24,0,2.16,2.16,0,0,0-3.33-2.76,9.46,9.46,0,0,1-15.57,0A2.16,2.16,0,0,0,91.17,157.87Z"/></g></svg>
