<svg xmlns="http://www.w3.org/2000/svg" viewBox="0 0 200 225"><defs><style>.cls-1{fill:#f7aaaa;}.cls-2{fill:#7a421c;}.cls-3{fill:#412312;}.cls-4{fill:#4c4c4d;}.cls-5{fill:#fff;}.cls-6{fill:#cf505e;}.cls-7{fill:#663818;}.cls-8{fill:#f0627a;}.cls-9{fill:#919191;}.cls-10{fill:#8e4d21;}</style></defs><title>petbot-graphics</title><g id="Layer_2_copy" data-name="Layer 2 copy"><circle class="cls-1" cx="100" cy="126.9" r="81.54"/><path class="cls-2" d="M115.77,196.39l10.7-12.23-2.55,12.23s12.74-9.17,31.08-26.5.51-49.93.51-49.93l4.59-12.23-8.66-17.32c11.21,0,10.81-16.3,10.81-16.3a205.3,205.3,0,0,1-.11-27.51c1-13.25-5.6-10.7-5.6-10.7l-28,28s-7.3-5.1-14.78-5.1h-.16c-5.65,0-14.78,5.1-14.78,5.1l-28-28s-6.62-2.55-5.6,10.7a205.3,205.3,0,0,1-.11,27.51s-.4,16.3,10.81,16.3L67.2,107.73,71.79,120S54,152.57,72.3,169.89s31.08,26.5,31.08,26.5l-2.55-12.23,10.7,12.23,2,2.17Z"/><path class="cls-3" d="M113.54,199.86,110.86,197l-8.43-9.63,2.32,11.12-1.91-1.38c-.13-.09-13-9.41-31.17-26.57-17.56-16.59-2.8-46.93-.88-50.66L66.2,107.68l8.22-16.44a9.46,9.46,0,0,1-5.74-2.84C64,83.55,64.13,74.46,64.14,74.08a206.35,206.35,0,0,0,.11-27.42c-.44-5.68.45-9.39,2.63-11A4.63,4.63,0,0,1,71.1,35l.32.21L99,62.78c2.18-1.16,9.58-4.88,14.61-4.88,6.6,0,12.83,3.58,14.82,4.84L156.2,35a4.63,4.63,0,0,1,4.21.61c2.18,1.63,3.07,5.33,2.63,11A206,206,0,0,0,163.15,74c0,.43.18,9.52-4.54,14.36a9.46,9.46,0,0,1-5.74,2.84l8.22,16.44-4.58,12.22c1.92,3.73,16.68,34.07-.88,50.66-18.18,17.17-31,26.48-31.18,26.58l-1.91,1.37,2.32-11.12L116.41,197ZM99.22,180.93l14.37,16.31,1.51-1.49,13-14.82-2.77,13.27a371.74,371.74,0,0,0,29.06-25c17.61-16.64.51-48.51.34-48.83l-.2-.37,4.59-12.25L150,89.49h1.48a7.89,7.89,0,0,0,5.86-2.37c4.18-4.28,4-12.91,4-13a207.42,207.42,0,0,1-.1-27.61c.48-6.22-.76-8.54-1.89-9.39a2.75,2.75,0,0,0-2.32-.43L128.61,65.1l-.63-.44c-.07,0-7.16-4.93-14.25-4.93-5.51,0-14.4,4.93-14.49,5l-.6.34L70.28,36.69a2.73,2.73,0,0,0-2.32.43c-1.12.85-2.36,3.17-1.89,9.39A208.15,208.15,0,0,1,66,74.17s-.15,8.66,4,12.94a7.89,7.89,0,0,0,5.87,2.37h1.48L68.2,107.78,72.79,120l-.2.37c-.18.32-17.28,32.19.33,48.83a372.53,372.53,0,0,0,29.07,25Zm16.54,15.45h0Z"/><path class="cls-4" d="M105.22,105.69h17.2a1.85,1.85,0,0,1,1.85,1.85v4.31a3.64,3.64,0,0,1-1.36,2.83L113.82,122l-9-7.06a3.64,3.64,0,0,1-1.4-2.87v-4.53A1.85,1.85,0,0,1,105.22,105.69Z"/><path class="cls-3" d="M113.83,123.16l-9.62-7.51a4.52,4.52,0,0,1-1.75-3.59v-4.53a2.76,2.76,0,0,1,2.76-2.76h17.2a2.76,2.76,0,0,1,2.76,2.76v4.31a4.53,4.53,0,0,1-1.7,3.55Zm-8.61-16.56a.93.93,0,0,0-.93.93v4.53a2.7,2.7,0,0,0,1,2.15l8.48,6.61,8.52-6.86a2.71,2.71,0,0,0,1-2.12v-4.31a.93.93,0,0,0-.93-.93Z"/><path class="cls-5" d="M103.38,93.21c0,6.89-11.72,6.89-11.72,0s2.62-12.48,5.86-12.48S103.38,86.31,103.38,93.21Z"/><path class="cls-3" d="M97.52,99.29c-3.37,0-6.77-2.09-6.77-6.09,0-7.51,3-13.4,6.77-13.4s6.77,5.89,6.77,13.4C104.29,97.2,100.88,99.29,97.52,99.29Zm0-17.65c-2.34,0-4.94,4.75-4.94,11.57,0,2.93,2.56,4.26,4.94,4.26s4.95-1.33,4.95-4.26C102.46,86.39,99.86,81.64,97.52,81.64Z"/><path class="cls-5" d="M138.51,93.21c0,6.89-11.72,6.89-11.72,0s2.62-12.48,5.86-12.48S138.51,86.31,138.51,93.21Z"/><path class="cls-3" d="M132.65,99.29c-3.37,0-6.77-2.09-6.77-6.09,0-7.51,3-13.4,6.77-13.4s6.77,5.89,6.77,13.4C139.42,97.2,136,99.29,132.65,99.29Zm0-17.65c-2.34,0-4.95,4.75-4.95,11.57,0,2.93,2.56,4.26,4.95,4.26s4.95-1.33,4.95-4.26C137.59,86.39,135,81.64,132.65,81.64Z"/><path class="cls-3" d="M99.7,133.69l-.71,0c-8.15-.57-13.06-10.85-13.26-11.28a.91.91,0,0,1,1.66-.78c0,.1,4.67,9.74,11.74,10.24,4.51.3,9.22-3.17,13.93-10.35a.91.91,0,0,1,1.53,1C109.72,129.93,104.72,133.69,99.7,133.69Z"/><path class="cls-6" d="M124.27,132.7c0,13.23-5,23.95-11.1,23.95s-11.1-10.72-11.1-23.95l7.09-3.77,4.66-5.94,4.83,5.94,5.61,3.77"/><path class="cls-3" d="M113.17,157.56c-6.73,0-12-10.92-12-24.86v-.55l7.4-3.94,5.25-6.7,5.47,6.73,5.91,4v.49C125.18,146.64,119.91,157.56,113.17,157.56ZM103,133.24c.13,12.24,4.74,22.49,10.18,22.49s10.06-10.28,10.18-22.55l-5.41-3.68-4.11-5.06-4.24,5.29Z"/><path class="cls-3" d="M113.57,141.76h0a.91.91,0,0,1-.9-.93L113,122a.92.92,0,0,1,1.74-.37c0,.1,4.67,9.74,11.74,10.24,4.52.3,9.22-3.16,13.93-10.35a.91.91,0,1,1,1.53,1c-5.09,7.78-10.33,11.55-15.59,11.17-5.47-.38-9.47-5.13-11.58-8.35l-.29,15.55A.92.92,0,0,1,113.57,141.76Z"/><circle class="cls-3" cx="97.52" cy="89.55" r="2.68"/><circle class="cls-3" cx="132.65" cy="89.55" r="2.68"/><path class="cls-3" d="M91.66,169.64a.92.92,0,0,1-.56-.2c-4.46-3.5-7.05-9.64-8.29-13.37l-1.26,4.47A.91.91,0,0,1,80,161c-5.42-5.12-5.18-15.36-5.16-15.8a1,1,0,0,1,.94-.89.91.91,0,0,1,.89.94c0,.09-.19,8.37,3.53,13.23l1.68-6a.82.82,0,0,1,.9-.66.91.91,0,0,1,.87.71c0,.1,2.09,9,7.06,14.12V157a.91.91,0,1,1,1.83,0v11.76a.92.92,0,0,1-.51.82A.91.91,0,0,1,91.66,169.64Z"/><path class="cls-3" d="M133.07,169.64a.91.91,0,0,1-.4-.09.92.92,0,0,1-.51-.82V157a.91.91,0,1,1,1.83,0v9.7c5-5.15,7-14,7.06-14.12a.91.91,0,0,1,.87-.71.86.86,0,0,1,.9.66l1.68,6c3.74-4.87,3.54-13.14,3.53-13.23a.92.92,0,0,1,1.83-.06c0,.43.26,10.68-5.16,15.8a.92.92,0,0,1-1.51-.42l-1.26-4.47c-1.24,3.73-3.84,9.87-8.29,13.37A.93.93,0,0,1,133.07,169.64Z"/><path class="cls-7" d="M86.56,75S73,67.64,75.78,61.7s-3.66-12.8-3.66-12.8"/><path class="cls-3" d="M86.56,75.88a.92.92,0,0,1-.43-.11c-1.46-.79-14.2-7.91-11.18-14.45,2.45-5.31-3.43-11.73-3.49-11.8a.91.91,0,0,1,1.34-1.25c.28.3,6.79,7.38,3.82,13.81-2,4.24,6.84,10.15,10.39,12.07a.91.91,0,0,1-.44,1.72Z"/><path class="cls-7" d="M141,75s13.53-7.32,10.78-13.26,3.66-12.8,3.66-12.8"/><path class="cls-3" d="M141,75.88a.92.92,0,0,1-.44-1.72c3.55-1.92,12.35-7.84,10.39-12.07-3-6.43,3.54-13.51,3.82-13.81a.91.91,0,0,1,1.34,1.25c-.06.06-5.95,6.49-3.49,11.8,3,6.54-9.72,13.66-11.18,14.45A.92.92,0,0,1,141,75.88Z"/><path class="cls-8" d="M118.31,149.56c0,1.8-2.23,4.17-5,4.17s-5-2.37-5-4.17,2.23-3.26,5-3.26S118.31,147.76,118.31,149.56Z"/><ellipse class="cls-9" cx="114.12" cy="109.65" rx="7.09" ry="1.61"/><path class="cls-3" d="M92.13,117.33a2.42,2.42,0,0,1-1.44-.48,6.84,6.84,0,0,1-2-3.6c-1.44,1.38-3.49,2.51-5.43,1.38a5,5,0,0,1-2.39-4.39,4.84,4.84,0,0,1-3.75-.29,3.61,3.61,0,0,1-1.49-3.29c0-5.18,3.11-7.11,3.24-7.19a.91.91,0,0,1,.95,1.57c-.1.06-2.36,1.53-2.36,5.62a2,2,0,0,0,.64,1.75c.86.55,2.66,0,3.39-.32a.92.92,0,0,1,1.28,1c0,.11-.56,2.79,1.41,3.94,1.79,1.05,4.25-2.29,4.27-2.32a.93.93,0,0,1,1-.36.91.91,0,0,1,.69.76c.18,1.3.79,3.59,1.67,4.23a.55.55,0,0,0,.47.12c1.64-.29,1.69-2.34,1.69-2.43a.89.89,0,0,1,.92-.9.91.91,0,0,1,.91.91c0,1.27-.68,3.78-3.2,4.22A2.42,2.42,0,0,1,92.13,117.33Z"/><path class="cls-3" d="M134.57,117.33a2.5,2.5,0,0,1-.42,0c-2.52-.45-3.2-3-3.2-4.22a.91.91,0,0,1,.91-.92h0a.92.92,0,0,1,.91.91c0,.08,0,2.14,1.69,2.43a.56.56,0,0,0,.46-.12c.88-.64,1.49-2.93,1.67-4.23a.92.92,0,0,1,1.65-.4s2.47,3.37,4.27,2.32c2-1.15,1.43-3.82,1.41-3.94a.92.92,0,0,1,1.28-1c.59.27,2.48.91,3.4.32a2,2,0,0,0,.64-1.75c0-4.1-2.27-5.56-2.36-5.62a.92.92,0,0,1-.3-1.25.91.91,0,0,1,1.25-.31c.13.08,3.24,2,3.24,7.19a3.61,3.61,0,0,1-1.49,3.29,4.85,4.85,0,0,1-3.75.29,5,5,0,0,1-2.39,4.39c-1.93,1.13-4,0-5.43-1.38a6.83,6.83,0,0,1-2,3.6A2.42,2.42,0,0,1,134.57,117.33Z"/><circle class="cls-10" cx="109.62" cy="73.82" r="4.2"/><circle class="cls-10" cx="78.26" cy="131.9" r="4.2"/><circle class="cls-10" cx="144.04" cy="134.8" r="4.2"/><circle class="cls-10" cx="117.01" cy="69.63" r="2.9"/><circle class="cls-10" cx="86.56" cy="131.9" r="2.9"/><circle class="cls-10" cx="133.07" cy="148.63" r="2.9"/><circle class="cls-10" cx="120.41" cy="75.92" r="2.1"/><circle class="cls-10" cx="82.47" cy="138.91" r="2.1"/><circle class="cls-10" cx="132.65" cy="141.01" r="2.1"/><circle class="cls-10" cx="88.41" cy="143.79" r="1.05"/><circle class="cls-10" cx="137.93" cy="134.8" r="1.05"/><circle class="cls-10" cx="144.93" cy="142.1" r="1.05"/><circle class="cls-10" cx="82.47" cy="125.69" r="1.05"/></g></svg>