<svg version="1.1" id="Layer_1" xmlns="http://www.w3.org/2000/svg" xmlns:xlink="http://www.w3.org/1999/xlink" x="0px" y="0px"
	 viewBox="0 0 1136 574" style="enable-background:new 0 0 1136 574;" xml:space="preserve">
<image style="overflow:visible;" width="442" height="540" xlink:href="/img/petbot.png"  transform="matrix(1 0 0 1 319 18)">
</image>
<path style="opacity:0.54;fill:#FFFFFF;" d="M650.8,5c15.2,11.8,25,30.2,25,50.9c0,35.6-28.8,64.4-64.4,64.4
	c-21.3,0-40.3-10.4-52-26.4c-1.5,34.3-29.7,61.6-64.3,61.6c-35.6,0-64.4-28.8-64.4-64.4c0-35.6,28.8-64.4,64.4-64.4
	c21.3,0,40.3,10.4,52,26.4C547.9,33.5,557.5,16.2,572,5H326v558h467V5H650.8z"/>
<path style="opacity:0.54;fill:#FFFFFF;" d="M306.5,8v558h467V8H306.5z M474.1,548.6c-187.5-36-139.5-37.5-139.5-37.5l-21-322.3
	c0,0-12-129.2,73.5-12.2S661.6,584.6,474.1,548.6z"/>
<path style="opacity:0.54;fill:#FFFFFF;" d="M309.5,11v558h467V11H309.5z M670.1,315c-39.4,0-71.4-32-71.4-71.4s32-71.4,71.4-71.4
	s71.4,32,71.4,71.4S709.5,315,670.1,315z"/>
<path style="opacity:0.54;fill:#FFFFFF;" d="M314.5,5v558h467V5H314.5z M665.1,480.8c-41.4,0-75-33.6-75-75c0-41.4,33.6-75,75-75
	c41.4,0,75,33.6,75,75C740.1,447.2,706.5,480.8,665.1,480.8z"/>
<circle style="fill:none;stroke:#F27E7E;stroke-width:4;stroke-miterlimit:10;" cx="441.6" cy="312" r="12.2"/>
<circle style="fill:none;stroke:#F27E7E;stroke-width:4;stroke-miterlimit:10;" cx="711.8" cy="202" r="12.2"/>
<circle style="fill:none;stroke:#F27E7E;stroke-width:4;stroke-miterlimit:10;" cx="711.8" cy="422" r="12.2"/>
<circle style="fill:none;stroke:#F27E7E;stroke-width:4;stroke-miterlimit:10;" cx="466" cy="40.2" r="12.2"/>
<line style="fill:none;stroke:#F27E7E;stroke-width:4;stroke-miterlimit:10;" x1="453.8" y1="40.2" x2="280" y2="40.2"/>
<line style="fill:none;stroke:#F27E7E;stroke-width:4;stroke-miterlimit:10;" x1="429.4" y1="312" x2="280" y2="312"/>
<line style="fill:none;stroke:#F27E7E;stroke-width:4;stroke-miterlimit:10;" x1="724" y1="202" x2="826" y2="202"/>
<line style="fill:none;stroke:#F27E7E;stroke-width:4;stroke-miterlimit:10;" x1="724" y1="422" x2="816" y2="422"/>
<text transform="matrix(1 0 0 1 851.9981 209.5001)" style="font-family:'Corbel'; font-size:28.4921px; letter-spacing:2;">CAMERA</text>
<text transform="matrix(1 0 0 1 851.9981 434.2054)" style="font-family:'Corbel'; font-size:28.4921px; letter-spacing:2;">TREAT DISPENSER</text>
<text transform="matrix(1 0 0 1 35.4985 50.9107)" style="font-family:'Corbel'; font-size:28.4921px; letter-spacing:2;">WIFI-ENABLED</text>
<text transform="matrix(1 0 0 1 35.4985 106.9107)"><tspan x="0" y="0" style="font-family:'Corbel'; font-size:24px;">Wifi connects and allows</tspan><tspan x="0" y="28.8" style="font-family:'Corbel'; font-size:24px;">for technology magic</tspan><tspan x="0" y="57.6" style="font-family:'Corbel'; font-size:24px;">which is super cool.</tspan></text>
<text transform="matrix(1 0 0 1 110.999 367.3978)"><tspan x="0" y="0" style="font-family:'Corbel'; font-size:24px;">Stores treats, and</tspan><tspan x="0" y="28.8" style="font-family:'Corbel'; font-size:24px;">is durable even</tspan><tspan x="0" y="57.6" style="font-family:'Corbel'; font-size:24px;">if your pet loves on it.</tspan></text>
<text transform="matrix(1 0 0 1 851.9981 256.4034)"><tspan x="0" y="0" style="font-family:'Corbel'; font-size:24px;">Impressive camera stats</tspan><tspan x="0" y="28.8" style="font-family:'Corbel'; font-size:24px;">super awesome camera.</tspan></text>
<text transform="matrix(1 0 0 1 851.9981 475.8924)"><tspan x="0" y="0" style="font-family:'Corbel'; font-size:24px;">Treats come out here</tspan><tspan x="0" y="28.8" style="font-family:'Corbel'; font-size:24px;">yaya super cool.</tspan></text>
<text transform="matrix(1 0 0 1 110.999 321.2051)" style="font-family:'Corbel'; font-size:28.4921px; letter-spacing:2;">SEXY BOD</text>
</svg>
