<svg id="Layer_1" data-name="Layer 1" xmlns="http://www.w3.org/2000/svg" viewBox="0 0 900 600">
  <title>social-sprite-svg</title>
  <g>
    <g>
      <circle cx="450" cy="150" r="150" style="fill: #fff"/>
      <g id="KJqpY4.tif">
        <path d="M485.78,68.37h5.64c1.45.2,2.91.35,4.35.61A40.73,40.73,0,0,1,518,80.72a1.43,1.43,0,0,0,1.47.49,82.5,82.5,0,0,0,20.78-7.36c1.45-.75,2.88-1.53,4.32-2.3A40.69,40.69,0,0,1,527.17,94a83.19,83.19,0,0,0,23-6.2,7.7,7.7,0,0,1-.7,1.16,83.1,83.1,0,0,1-19,19.5,1.55,1.55,0,0,0-.7,1.46,123.55,123.55,0,0,1-.46,15.23,117.31,117.31,0,0,1-5.28,25.2A119.73,119.73,0,0,1,490.26,203,108.28,108.28,0,0,1,460,222.29a119.6,119.6,0,0,1-51.15,9.27,116.24,116.24,0,0,1-58.45-17.82c-.23-.14-.55-.21-.62-.61a82.87,82.87,0,0,0,60.57-17.05,41.37,41.37,0,0,1-38.12-27.72c-.16-.44-.5-1,.5-.84a39.18,39.18,0,0,0,13.41.12,22,22,0,0,0,4-.88,1.45,1.45,0,0,0-.24-.15l-.6-.15q-19.25-4.86-27.93-22.72a38.53,38.53,0,0,1-3.84-17.13c0-.58.06-.82.71-.47a40.9,40.9,0,0,0,15.15,4.62c.76.08,1.52.09,2.29.13-8.7-6.41-14.49-14.67-16.82-25.16a40.85,40.85,0,0,1,4.58-29.89l.48.61A116.19,116.19,0,0,0,376,89a116.85,116.85,0,0,0,30.84,20,117.67,117.67,0,0,0,40.69,9.89c.89.06.79-.32.67-.9A41.23,41.23,0,0,1,480,69.22C481.94,68.82,483.87,68.68,485.78,68.37Z" style="fill: #f27e7e"/>
      </g>
    </g>
    <g>
      <circle cx="750" cy="150.23" r="150" style="fill: #fff"/>
      <circle cx="750" cy="145.74" r="107.02" style="fill: #f27e7e"/>
      <path d="M876.63,126.79V140a16.47,16.47,0,0,0-.44,1.79c-.65,4.92-1.06,9.88-2,14.75-9.11,49.8-51.15,89.81-101.43,96.62-3.58.48-7.16.93-10.73,1.39H748.82c-2.56-.33-5.14-.55-7.68-1-6.56-1.15-13.1-2.39-20.38-3.73,13-18,15.29-39,21.08-58.86,8.94,11.59,20.94,15.39,34.81,14.26a56.52,56.52,0,0,0,33.9-14.66,71.26,71.26,0,0,0,19-27.92c6.47-16.78,9.48-34.18,6.15-52-4.43-23.63-18.6-40.16-40.16-50.25-19.38-9.07-39.69-9.48-60.17-4.68-38.61,9.06-59.17,39.3-61.58,67-1.1,12.73.58,25,6.93,36.39a34.86,34.86,0,0,0,17.18,15.62c3.47,1.46,5.63.41,6.64-3.2.79-2.81,1.33-5.68,2.22-8.46a7.61,7.61,0,0,0-1.74-8A27.32,27.32,0,0,1,698.2,141c-3.44-22.78,3.54-41.89,22-55.65,17.75-13.22,37.9-14.93,58.5-7.79,16.38,5.68,25.59,18,27.79,35.1,1.77,13.81-.23,27.37-4.59,40.56a58.92,58.92,0,0,1-10.31,19.29c-4,4.9-8.83,8.81-15,10.69-7.91,2.4-15.39,1.73-21.7-4s-6.8-12.83-4.57-20.48c2.4-8.24,4.92-16.46,7.27-24.71,1.75-6.15,3.26-12.36,2.62-18.86-.87-8.86-6.57-14.61-15.28-15.14a18.74,18.74,0,0,0-13.15,4.41,27.47,27.47,0,0,0-8.59,12.24c-3.93,10.69-3.29,21.34.38,32a7.39,7.39,0,0,1,.36,3.85c-3.75,16.2-7.67,32.35-11.41,48.55-2.25,9.74-5.25,19.35-5.63,29.44-.17,4.46,0,8.94,0,13.72-1-.36-1.48-.5-2-.74-38.81-19-62-49.72-69.23-92.41-.61-3.63-1-7.31-1.43-11V126.79a16.46,16.46,0,0,0,.44-1.79c.65-4.92,1.06-9.88,2-14.75,9.11-49.8,51.11-89.77,101.43-96.62,3.58-.49,7.16-.93,10.74-1.39h13.25a16.84,16.84,0,0,0,1.8.44c4.92.65,9.88,1.06,14.75,2,49.91,9.22,89.78,51.12,96.61,101.44C875.72,119.64,876.17,123.22,876.63,126.79Z" style="fill: #fff"/>
    </g>
    <g>
      <circle cx="150.39" cy="144.38" r="125.58" class="accent-fill"/>
      <path d="M0,157.64V142.39a21,21,0,0,0,.65-3.09A139.56,139.56,0,0,1,16.94,81.23C39.66,38.93,74.58,12.67,121.71,3c6.8-1.4,13.77-2,20.66-3h15.25a21,21,0,0,0,3.09.65A139.57,139.57,0,0,1,218.79,17c42.3,22.72,68.56,57.65,78.25,104.78,1.4,6.8,2,13.77,3,20.66v15.25a21,21,0,0,0-.65,3.09,139.59,139.59,0,0,1-16.29,58.07c-22.72,42.3-57.65,68.57-104.78,78.25-6.8,1.4-13.77,2-20.66,3H142.37a21,21,0,0,0-3.09-.65,139.55,139.55,0,0,1-58.07-16.29C38.91,260.36,12.65,225.43,3,178.3,1.56,171.5,1,164.54,0,157.64Zm123.73,91.64H164.8V149.76c8.58,0,16.74-.06,24.9,0,2.09,0,3.07-.46,3.27-2.76.4-4.48,1.23-8.93,1.72-13.41.62-5.62,1.07-11.26,1.64-17.39H165c0-7.12,0-13.78,0-20.43q0-10.57,10.74-10.6H196.1V50.78a12.88,12.88,0,0,0-1.73-.23c-12,.12-24.08-.14-36.09.48-21.07,1.08-34.39,15.44-34.47,36.49,0,8.49,0,17,0,25.47,0,1.13-.1,2.26-.17,3.78H104v33.06h19.77Z" style="fill: #fff"/>
    </g>
  </g>
  <g>
    <g>
      <circle cx="450" cy="450" r="150" class="accent-fill"/>
      <g id="KJqpY4.tif-2" data-name="KJqpY4.tif">
        <path d="M485.78,368.37h5.64c1.45.2,2.91.35,4.35.61A40.73,40.73,0,0,1,518,380.72a1.43,1.43,0,0,0,1.47.49,82.5,82.5,0,0,0,20.78-7.36c1.45-.75,2.88-1.53,4.32-2.3A40.69,40.69,0,0,1,527.17,394a83.19,83.19,0,0,0,23-6.2,7.7,7.7,0,0,1-.7,1.16,83.1,83.1,0,0,1-19,19.5,1.55,1.55,0,0,0-.7,1.46,123.55,123.55,0,0,1-.46,15.23,117.31,117.31,0,0,1-5.28,25.2A119.73,119.73,0,0,1,490.26,503,108.28,108.28,0,0,1,460,522.29a119.6,119.6,0,0,1-51.15,9.27,116.24,116.24,0,0,1-58.45-17.82c-.23-.14-.55-.21-.62-.61a82.87,82.87,0,0,0,60.57-17.05,41.37,41.37,0,0,1-38.12-27.72c-.16-.44-.5-1,.5-.84a39.18,39.18,0,0,0,13.41.12,22,22,0,0,0,4-.88,1.45,1.45,0,0,0-.24-.15l-.6-.15q-19.25-4.86-27.93-22.72a38.53,38.53,0,0,1-3.84-17.13c0-.58.06-.82.71-.47a40.9,40.9,0,0,0,15.15,4.62c.76.08,1.52.09,2.29.13-8.7-6.41-14.49-14.67-16.82-25.16a40.85,40.85,0,0,1,4.58-29.89l.48.61a117.56,117.56,0,0,0,42.89,32.62,117.67,117.67,0,0,0,40.69,9.89c.89.06.79-.32.67-.9A41.23,41.23,0,0,1,480,369.22C481.94,368.82,483.87,368.68,485.78,368.37Z" style="fill: #fff"/>
      </g>
    </g>
    <g>
      <circle cx="750" cy="450" r="150" class="accent-fill"/>
      <circle cx="750" cy="445.5" r="107.02" style="fill: #fff"/>
      <path d="M876.63,426.56v13.25a16.47,16.47,0,0,0-.44,1.79c-.65,4.92-1.06,9.88-2,14.75-9.11,49.8-51.15,89.81-101.43,96.62-3.58.48-7.16.93-10.73,1.39H748.82c-2.56-.33-5.14-.55-7.68-1-6.56-1.15-13.1-2.39-20.38-3.73,13-18,15.29-39,21.08-58.86,8.94,11.59,20.94,15.39,34.81,14.26a56.52,56.52,0,0,0,33.9-14.66,71.26,71.26,0,0,0,19-27.92c6.47-16.78,9.48-34.18,6.15-52-4.43-23.63-18.6-40.16-40.16-50.25-19.38-9.07-39.69-9.48-60.17-4.68-38.61,9.06-59.17,39.3-61.58,67-1.1,12.73.58,25,6.93,36.39a34.86,34.86,0,0,0,17.18,15.62c3.47,1.46,5.63.41,6.64-3.2.79-2.81,1.33-5.68,2.22-8.46a7.61,7.61,0,0,0-1.74-8,27.32,27.32,0,0,1-6.79-14.11c-3.44-22.78,3.54-41.89,22-55.65,17.75-13.22,37.9-14.93,58.5-7.79,16.38,5.68,25.59,18,27.79,35.1,1.77,13.81-.23,27.37-4.59,40.56a58.92,58.92,0,0,1-10.31,19.29c-4,4.9-8.83,8.81-15,10.69-7.91,2.4-15.39,1.73-21.7-4s-6.8-12.83-4.57-20.48c2.4-8.24,4.92-16.46,7.27-24.71,1.75-6.15,3.26-12.36,2.62-18.86-.87-8.86-6.57-14.61-15.28-15.14a18.74,18.74,0,0,0-13.15,4.41,27.47,27.47,0,0,0-8.59,12.24c-3.93,10.69-3.29,21.34.38,32a7.39,7.39,0,0,1,.36,3.85c-3.75,16.2-7.67,32.35-11.41,48.55-2.25,9.74-5.25,19.35-5.63,29.44-.17,4.46,0,8.94,0,13.72-1-.36-1.48-.5-2-.74-38.81-19-62-49.72-69.23-92.41-.61-3.63-1-7.31-1.43-11V426.56a16.46,16.46,0,0,0,.44-1.79c.65-4.92,1.06-9.88,2-14.75,9.11-49.8,51.11-89.77,101.43-96.62,3.58-.49,7.16-.93,10.74-1.39h13.25a16.84,16.84,0,0,0,1.8.44c4.92.65,9.88,1.06,14.75,2,49.91,9.22,89.78,51.12,96.61,101.44C875.72,419.41,876.17,423,876.63,426.56Z" style="fill: #f27e7e"/>
    </g>
    <g>
      <circle cx="150.39" cy="444.36" r="125.58" style="fill: #fff"/>
      <path d="M0,457.63V442.37a21,21,0,0,0,.65-3.09,139.56,139.56,0,0,1,16.29-58.07c22.72-42.3,57.64-68.56,104.77-78.25,6.8-1.4,13.77-2,20.66-3h15.25a21,21,0,0,0,3.09.65,139.57,139.57,0,0,1,58.07,16.29c42.3,22.72,68.56,57.65,78.25,104.78,1.4,6.8,2,13.77,3,20.66v15.25a21,21,0,0,0-.65,3.09,139.59,139.59,0,0,1-16.29,58.07c-22.72,42.3-57.65,68.57-104.78,78.25-6.8,1.4-13.77,2-20.66,3H142.37a21,21,0,0,0-3.09-.65,139.55,139.55,0,0,1-58.07-16.29C38.91,560.34,12.65,525.41,3,478.29,1.56,471.48,1,464.52,0,457.63Zm123.73,91.64H164.8V449.74c8.58,0,16.74-.06,24.9,0,2.09,0,3.07-.46,3.27-2.76.4-4.48,1.23-8.93,1.72-13.41.62-5.62,1.07-11.26,1.64-17.39H165c0-7.12,0-13.78,0-20.43q0-10.57,10.74-10.6H196.1V350.77a12.88,12.88,0,0,0-1.73-.23c-12,.12-24.08-.14-36.09.48-21.07,1.08-34.39,15.44-34.47,36.49,0,8.49,0,17,0,25.47,0,1.13-.1,2.26-.17,3.78H104v33.06h19.77Z" style="fill: #f27e7e"/>
    </g>
  </g>
</svg>
